<svg xmlns="http://www.w3.org/2000/svg" width="22.814" height="27.148" viewBox="0 0 22.814 27.148">
  <path id="apple-13" d="M23.074,46.346a5.658,5.658,0,0,1,3.031-5.14,6.512,6.512,0,0,0-5.134-2.7c-2.152-.17-4.5,1.255-5.364,1.255-.909,0-2.994-1.194-4.631-1.194C7.594,38.619,4,41.261,4,46.637a15.106,15.106,0,0,0,.873,4.922c.776,2.224,3.576,7.679,6.5,7.588,1.527-.036,2.606-1.085,4.594-1.085,1.927,0,2.927,1.085,4.631,1.085,2.946-.042,5.479-5,6.219-7.231A6.008,6.008,0,0,1,23.074,46.346Zm-3.431-9.952A5.709,5.709,0,0,0,21.1,32a6.427,6.427,0,0,0-4.115,2.115,5.8,5.8,0,0,0-1.552,4.358A5.09,5.09,0,0,0,19.643,36.394Z" transform="translate(-4 -32)"/>
</svg>
